# xmcd
#
# Track frame offsets:
#	150
#	17175
#	35350
#	59600
#	76950
#	91800
#	121200
#	150600
#	167100
#	190800
#	209475
#	239025
#	258150
#	275025
#	294975
#
# Disc length: 4182 seconds
#
# Revision: 1
# Processed by: cddbd v1.5.1PL0 Copyright (c) Steve Scherf et al.
# Submitted via: CDex 1.50Beta5
#
DISCID=d310540f
DTITLE=さまざまなアーティスト - Groove Party 3
DYEAR=1900
DGENRE=
TTITLE0=Tic, tic tac
TTITLE1=I wanna come (with you)
TTITLE2=It's gonna be alright (Marsh Hedley's radio edit
TTITLE3=Bad girls (Radio version
TTITLE4=I know that you want me (Radio edit
TTITLE5=Tonight is the night (Dance mix
TTITLE6=Call me (Dance mix)
TTITLE7=Let it go (Go for radio)
TTITLE8=Please don't go (Berman Brothers Club mix)
TTITLE9=Fable (Message radio)
TTITLE10=We like to dance (Na-na-na) (Extended power mix)
TTITLE11=Baby, I love your away
TTITLE12=Warum? (Out of space mix)
TTITLE13=L.O.V.E.
TTITLE14=Real thing
EXTD=
EXTT0=
EXTT1=
EXTT2=
EXTT3=
EXTT4=
EXTT5=
EXTT6=
EXTT7=
EXTT8=
EXTT9=
EXTT10=
EXTT11=
EXTT12=
EXTT13=
EXTT14=
PLAYORDER=
